<?xml version="1.0" encoding="iso-8859-1"?>
<!-- Generator: Adobe Illustrator 19.0.0, SVG Export Plug-In . SVG Version: 6.00 Build 0)  -->
<svg version="1.1" id="Layer_1" xmlns="http://www.w3.org/2000/svg" xmlns:xlink="http://www.w3.org/1999/xlink" x="0px" y="0px"
	 viewBox="0 0 511.999 511.999" style="enable-background:new 0 0 511.999 511.999;" xml:space="preserve">
<polygon style="fill:#FF7099;" points="501.801,120.455 441.047,59.701 169.957,330.79 70.954,231.787 10.199,292.541 
	169.957,452.299 "/>
<g>
	<path style="fill:#DB006E;" d="M169.957,462.498c-2.61,0-5.22-0.995-7.212-2.987L2.987,299.753c-3.983-3.983-3.983-10.441,0-14.425
		l60.754-60.754c1.912-1.912,4.507-2.987,7.212-2.987s5.3,1.075,7.212,2.987l91.793,91.793L433.835,52.489
		c3.982-3.983,10.441-3.983,14.424,0l60.754,60.755c3.983,3.983,3.983,10.441,0,14.424L177.169,459.51
		C175.178,461.502,172.567,462.498,169.957,462.498z M24.623,292.541l145.335,145.334l317.42-317.42l-46.33-46.33L177.169,338.003
		c-3.983,3.983-10.442,3.983-14.424,0L70.953,246.21L24.623,292.541z"/>
	<path style="fill:#DB006E;" d="M355.91,234.596c-2.61,0-5.221-0.995-7.212-2.987c-3.983-3.983-3.983-10.441,0-14.425l74.423-74.423
		c3.983-3.983,10.441-3.983,14.425,0c3.984,3.983,3.983,10.441,0,14.425l-74.423,74.423
		C361.13,233.599,358.52,234.596,355.91,234.596z"/>
	<path style="fill:#DB006E;" d="M454.884,135.649c-2.61,0-5.221-0.995-7.212-2.987c-3.983-3.983-3.983-10.441,0-14.425l2.55-2.55
		c3.983-3.983,10.441-3.983,14.425,0c3.983,3.983,3.983,10.441,0,14.425l-2.55,2.55
		C460.105,134.654,457.494,135.649,454.884,135.649z"/>
</g>
<g>
</g>
<g>
</g>
<g>
</g>
<g>
</g>
<g>
</g>
<g>
</g>
<g>
</g>
<g>
</g>
<g>
</g>
<g>
</g>
<g>
</g>
<g>
</g>
<g>
</g>
<g>
</g>
<g>
</g>
</svg>
