<?xml version="1.0" encoding="UTF-8" standalone="no" ?>
<!DOCTYPE svg PUBLIC "-//W3C//DTD SVG 1.1//EN" "http://www.w3.org/Graphics/SVG/1.1/DTD/svg11.dtd">
<svg xmlns="http://www.w3.org/2000/svg" xmlns:xlink="http://www.w3.org/1999/xlink" version="1.1" width="642" height="149" viewBox="0 0 642 149" xml:space="preserve">
<desc>Created with Fabric.js 3.6.3</desc>
<defs>
</defs>
<g transform="matrix(1 0 0 1 331.85 171.26)"  >
<g style=""   >
		<g transform="matrix(1.9 1.9 -1.9 1.9 -257.66 -97.12)" id="circle1858-5-9-3"  >
<circle style="stroke: rgb(255,99,140); stroke-width: 0; stroke-dasharray: none; stroke-linecap: round; stroke-dashoffset: 0; stroke-linejoin: miter; stroke-miterlimit: 4; fill: rgb(235,196,245); fill-rule: nonzero; opacity: 1;"  cx="0" cy="0" r="27.529131" />
</g>
		<g transform="matrix(1.9 1.9 -1.9 1.9 -257.66 -97.12)" id="circle1860-0-8-5"  >
<linearGradient id="SVGID_linearGradient1888-0-1-9_5" gradientUnits="userSpaceOnUse" gradientTransform="matrix(1.41 0 0 1.41 -54.37 -251.26)"  x1="74.801247" y1="172.20081" x2="132.7516" y2="122.59023">
<stop offset="0%" style="stop-color:rgb(255,0,255);stop-opacity: 1"/>
<stop offset="100%" style="stop-color:rgb(255,102,0);stop-opacity: 1"/>
</linearGradient>
<circle style="stroke: url(#SVGID_linearGradient1888-0-1-9_5); stroke-width: 0; stroke-dasharray: none; stroke-linecap: round; stroke-dashoffset: 0; stroke-linejoin: miter; stroke-miterlimit: 4; fill: rgb(255,255,255); fill-rule: nonzero; opacity: 1;"  cx="0" cy="0" r="20.607521" />
</g>
		<g transform="matrix(1.9 1.9 -1.9 1.9 -257.66 -97.12)" id="circle1862-1-0-0"  >
<circle style="stroke: rgb(255,99,140); stroke-width: 0; stroke-dasharray: none; stroke-linecap: round; stroke-dashoffset: 0; stroke-linejoin: miter; stroke-miterlimit: 4; fill: rgb(235,196,245); fill-rule: nonzero; opacity: 1;"  cx="0" cy="0" r="9.5958691" />
</g>
		<g transform="matrix(1.9 1.9 -1.9 1.9 -228.52 -126.24)" id="rect1864-5-6-8"  >
<rect style="stroke: rgb(255,99,140); stroke-width: 0; stroke-dasharray: none; stroke-linecap: round; stroke-dashoffset: 0; stroke-linejoin: miter; stroke-miterlimit: 4; fill: rgb(235,196,245); fill-rule: nonzero; opacity: 1;"  x="-2.9102223" y="-9.640112" rx="0" ry="0" width="5.8204446" height="19.280224" />
</g>
		<g transform="matrix(-1.9 1.9 -1.9 -1.9 -227.67 -67.1)" id="rect1866-0-3-7"  >
<rect style="stroke: rgb(255,99,140); stroke-width: 0; stroke-dasharray: none; stroke-linecap: round; stroke-dashoffset: 0; stroke-linejoin: miter; stroke-miterlimit: 4; fill: rgb(235,196,245); fill-rule: nonzero; opacity: 1;"  x="-2.9102223" y="-9.640112" rx="0" ry="0" width="5.8204446" height="19.280224" />
</g>
		<g transform="matrix(1.9 1.9 -1.9 1.9 -288.61 -66.2)" id="rect1868-2-5-3"  >
<rect style="stroke: rgb(255,99,140); stroke-width: 0; stroke-dasharray: none; stroke-linecap: round; stroke-dashoffset: 0; stroke-linejoin: miter; stroke-miterlimit: 4; fill: rgb(235,196,245); fill-rule: nonzero; opacity: 1;"  x="-2.9102223" y="-9.640112" rx="0" ry="0" width="5.8204446" height="19.280224" />
</g>
		<g transform="matrix(-1.9 1.9 -1.9 -1.9 -286.47 -125.96)" id="rect1870-1-1-1"  >
<rect style="stroke: rgb(255,99,140); stroke-width: 0; stroke-dasharray: none; stroke-linecap: round; stroke-dashoffset: 0; stroke-linejoin: miter; stroke-miterlimit: 4; fill: rgb(235,196,245); fill-rule: nonzero; opacity: 1;"  x="-2.9102223" y="-9.640112" rx="0" ry="0" width="5.8204446" height="19.280224" />
</g>
		<g transform="matrix(2.69 0 0 2.69 -257.66 -135.56)" id="rect1874-8-8-0"  >
<rect style="stroke: rgb(255,99,140); stroke-width: 0; stroke-dasharray: none; stroke-linecap: round; stroke-dashoffset: 0; stroke-linejoin: miter; stroke-miterlimit: 4; fill: rgb(235,196,245); fill-rule: nonzero; opacity: 1;"  x="-2.9102223" y="-9.640112" rx="0" ry="0" width="5.8204446" height="19.280224" />
</g>
		<g transform="matrix(0 2.69 -2.69 0 -220.5 -97.12)" id="rect1876-0-3-5"  >
<rect style="stroke: rgb(255,99,140); stroke-width: 0; stroke-dasharray: none; stroke-linecap: round; stroke-dashoffset: 0; stroke-linejoin: miter; stroke-miterlimit: 4; fill: rgb(235,196,245); fill-rule: nonzero; opacity: 1;"  x="-2.9102223" y="-9.640112" rx="0" ry="0" width="5.8204446" height="19.280224" />
</g>
		<g transform="matrix(-2.69 0 0 -2.69 -257.66 -57.33)" id="rect1878-5-6-18"  >
<rect style="stroke: rgb(255,99,140); stroke-width: 0; stroke-dasharray: none; stroke-linecap: round; stroke-dashoffset: 0; stroke-linejoin: miter; stroke-miterlimit: 4; fill: rgb(235,196,245); fill-rule: nonzero; opacity: 1;"  x="-2.9102223" y="-9.640112" rx="0" ry="0" width="5.8204446" height="19.280224" />
</g>
		<g transform="matrix(0 2.69 -2.69 0 -294.62 -97.12)" id="rect1880-2-4-5"  >
<rect style="stroke: rgb(255,99,140); stroke-width: 0; stroke-dasharray: none; stroke-linecap: round; stroke-dashoffset: 0; stroke-linejoin: miter; stroke-miterlimit: 4; fill: rgb(235,196,245); fill-rule: nonzero; opacity: 1;"  x="-2.9102223" y="-9.640112" rx="0" ry="0" width="5.8204446" height="19.280224" />
</g>
		<g transform="matrix(7.51 0 0 7.51 72.33 -90.27)" style="" id="text440-9-1"  >
		<text xml:space="preserve" font-family="ubuntu" font-size="13.5862" font-style="normal" font-weight="normal" style="stroke: none; stroke-width: 0.0203794; stroke-dasharray: none; stroke-linecap: butt; stroke-dashoffset: 0; stroke-linejoin: miter; stroke-miterlimit: 4; fill: rgb(0,52,92); fill-rule: nonzero; opacity: 1; white-space: pre;" ><tspan x="-32.1" y="4.27" >RideShare</tspan></text>
</g>
</g>
</g>
</svg>