<?xml version="1.0" encoding="UTF-8" standalone="no" ?>
<!DOCTYPE svg PUBLIC "-//W3C//DTD SVG 1.1//EN" "http://www.w3.org/Graphics/SVG/1.1/DTD/svg11.dtd">
<svg xmlns="http://www.w3.org/2000/svg" xmlns:xlink="http://www.w3.org/1999/xlink" version="1.1" width="559" height="682" viewBox="0 0 559 682" xml:space="preserve">
<desc>Created with Fabric.js 3.6.3</desc>
<defs>
</defs>
<g transform="matrix(1 0 0 1 278.33 341.33)"  >
<g style=""   >
		<g transform="matrix(0.13 0 0 -0.13 -6.16 -8.25)"  >
<path style="stroke: none; stroke-width: 1; stroke-dasharray: none; stroke-linecap: butt; stroke-dashoffset: 0; stroke-linejoin: miter; stroke-miterlimit: 4; fill: rgb(0,0,0); fill-rule: nonzero; opacity: 1;"  transform=" translate(-2566.11, -2557.94)" d="M 2355 5109 c -499 -61 -944 -316 -1195 -684 c -252 -371 -290 -839 -100 -1228 l 38 -77 l -84 -93 c -378 -413 -579 -995 -534 -1547 c 37 -459 197 -853 490 -1202 c 80 -96 229 -241 273 -265 c 29 -16 2600 -19 2644 -2 c 40 15 297 279 367 378 c 287 404 420 838 403 1316 c -18 502 -211 971 -553 1343 l -67 73 l 41 87 c 80 173 113 319 114 507 c 1 153 -12 243 -58 383 c -165 505 -634 882 -1239 993 c -129 24 -415 33 -540 18 z m 360 -229 c 520 -50 950 -322 1145 -724 c 77 -159 95 -240 95 -431 c 0 -218 -26 -316 -138 -518 c -68 -122 -66 -132 56 -257 c 175 -177 271 -313 373 -524 c 278 -580 233 -1273 -118 -1809 c -78 -119 -121 -171 -237 -290 l -96 -97 l -1228 0 l -1229 0 l -70 67 c -262 253 -454 607 -529 979 c -30 152 -38 453 -15 609 c 61 410 245 777 532 1060 c 44 44 86 90 92 102 c 22 40 13 84 -32 162 c -182 318 -192 657 -28 974 c 239 466 830 754 1427 697 z" stroke-linecap="round" />
</g>
		<g transform="matrix(0.13 0 0 -0.13 -2 -180.3)"  >
<path style="stroke: none; stroke-width: 1; stroke-dasharray: none; stroke-linecap: butt; stroke-dashoffset: 0; stroke-linejoin: miter; stroke-miterlimit: 4; fill: rgb(0,0,0); fill-rule: nonzero; opacity: 1;"  transform=" translate(-2568.16, -3899.28)" d="M 2425 4413 c -200 -28 -425 -137 -577 -281 c -256 -242 -276 -548 -46 -702 c 84 -56 103 -57 243 -17 c 358 103 712 102 1057 -3 c 53 -17 106 -30 118 -30 c 38 0 139 61 185 112 c 87 96 113 243 67 370 c -92 254 -404 486 -729 543 c -79 14 -246 18 -318 8 z m 329 -248 c 156 -42 260 -101 372 -210 c 89 -87 135 -163 136 -225 c 0 -41 -24 -86 -52 -95 c -10 -3 -63 6 -117 19 c -203 52 -273 61 -523 61 c -252 0 -298 -5 -514 -57 l -129 -32 l -28 32 c -36 41 -37 79 -3 151 c 79 172 311 327 552 371 c 67 13 236 4 306 -15 z" stroke-linecap="round" />
</g>
</g>
</g>
<g transform="matrix(1 0 0 1 276 443.2)" style=""  >
		<text xml:space="preserve" font-family="'Ubuntu', sans-serif" font-size="18" font-style="normal" font-weight="normal" style="stroke: none; stroke-width: 1; stroke-dasharray: none; stroke-linecap: butt; stroke-dashoffset: 0; stroke-linejoin: miter; stroke-miterlimit: 4; fill: rgb(0,0,0); fill-rule: nonzero; opacity: 1; white-space: pre;" ><tspan x="-115" y="56.55" class="text-lg">1g</tspan></text>
</g>
</svg>