<?xml version="1.0" encoding="iso-8859-1"?>
<!-- Generator: Adobe Illustrator 19.0.0, SVG Export Plug-In . SVG Version: 6.00 Build 0)  -->
<svg version="1.1" id="Layer_1" xmlns="http://www.w3.org/2000/svg" xmlns:xlink="http://www.w3.org/1999/xlink" x="0px" y="0px"
	 viewBox="0 0 512 512" style="enable-background:new 0 0 512 512;" xml:space="preserve">
<circle style="fill:#4AB8A1;" cx="256" cy="256" r="256"/>
<path style="fill:#43A691;" d="M502.504,325.044c-0.684-1.064-1.52-2.064-2.504-2.876v-0.884c0-2.788-1.664-5.76-4-7.576v-0.624
	v-2.044c0-2.752-1.672-4.812-4-5.976v-0.172v-0.096v-1.956v-2.048c0-2.716-1.684-5.416-4-7.092v-1.1v-2.048
	c0-2.672-1.692-4.508-4-5.544v-0.604v-0.1v-1.952v-2.048c0-2.64-1.7-5.08-4-6.628v-1.568v-2.048c0-2.604-1.708-4.232-4-5.14v-1.008
	v-0.1v-1.952v-2.048c0-2.568-1.72-4.776-4-6.188v-0.056v-1.952v-2.048c0-2.536-1.72-5.3-4-7.212v-0.988v-2.048
	c0-2.504-1.728-4.504-4-5.784v-0.36v-2.048c0-2.672-1.692-4.716-4-5.916v-0.232v-0.096v-1.952v-2.048c0-2.636-1.704-5.284-4-6.996
	v-1.2v-2.048c0-2.6-1.708-4.424-4-5.5v-0.648v-0.096v-1.952v-2.048c0-2.568-1.72-4.972-4-6.548V192.2v-2.048
	c0-2.536-1.72-4.168-4-5.112V184c0-4.4-3.6-8-8-8h-12h-4c-4.4,0-8,3.6-8,8v0.688l-2.532,2.532l-17.004-37.688l-11.7-26.644
	c-6.276-14.116-20-22.888-35.812-22.888H167.04c-15.804,0-29.532,8.768-35.82,22.904l-29.588,67.416l-2.024-2.02
	c-0.532-1.324-1.612-2.312-3-3L96,184.688V184c0-4.4-3.6-8-8-8h-4H72c-4.4,0-8,3.6-8,8v2.048V188v0.096v1.952v2.048
	c0,2.504,1.728,4.688,4,6.132v0.016v0.096v1.952v2.048c0,2.476,1.728,5.188,4,7.116v1.08v1.712c-7.492,4.528-12,12.86-12,22.208
	v2.048v2.048v46.532v2.052v2.048c0,12.904,0.9,24.996,4.584,34.164c0.076,0.188,0.14,0.388,0.224,0.576
	c0.308,0.736,0.648,1.436,0.996,2.132c0.236,0.476,0.444,0.968,0.704,1.42c1.116,4.764,2.728,9.044,4.936,12.668
	c0.416,1.308,0.88,2.564,1.388,3.768c0.016,0.032,0.028,0.064,0.04,0.088c0.38,0.876,0.784,1.712,1.216,2.524
	c0.148,0.28,0.264,0.584,0.416,0.864c1.12,4.752,2.712,9.04,4.924,12.652c0.804,2.528,1.78,4.872,2.968,7
	c0.164,0.296,0.32,0.6,0.492,0.888c0.14,0.248,0.276,0.5,0.428,0.74c0.384,1.212,0.808,2.376,1.272,3.496
	c0.036,0.08,0.064,0.152,0.088,0.228c0.356,0.836,0.752,1.636,1.156,2.416c0.18,0.352,0.344,0.724,0.536,1.064
	c1.092,4.752,2.672,9,4.892,12.584c0.768,2.468,1.724,4.752,2.868,6.828c0.08,0.148,0.14,0.312,0.224,0.452
	c0.636,2.756,1.436,5.352,2.424,7.748c0.048,0.104,0.084,0.212,0.124,0.32c0.344,0.808,0.728,1.584,1.108,2.34
	c0.188,0.368,0.348,0.764,0.548,1.124c1.124,4.752,2.736,9.044,4.94,12.68c0.76,2.4,1.7,4.624,2.8,6.672
	c0.08,0.14,0.14,0.296,0.216,0.436c1.136,4.792,2.732,9.136,4.964,12.796c0.812,2.54,1.804,4.9,3,7.04
	c1.164,4.916,2.804,9.376,5.124,13.096c0.804,2.508,1.796,4.836,2.968,6.964c0.804,3.408,1.868,6.564,3.204,9.436
	C163.936,498.988,208.436,512,256,512C373.444,512,472.36,432.876,502.504,325.044z"/>
<path style="fill:#992B1F;" d="M100,208c-2.048,0-4.092-0.78-5.656-2.344l-12-12c-3.124-3.124-3.124-8.188,0-11.312
	s8.188-3.124,11.312,0l12,12c3.124,3.124,3.124,8.188,0,11.312C104.092,207.22,102.048,208,100,208z"/>
<path style="fill:#80241A;" d="M105.656,194.344l-12-12c-2.08-2.08-5.004-2.744-7.656-2.056c1.336,0.344,2.608,1.008,3.656,2.056
	l12,12c3.124,3.124,3.124,8.188,0,11.312c-1.048,1.048-2.32,1.712-3.656,2.056c0.656,0.168,1.324,0.288,2,0.288
	c2.048,0,4.092-0.78,5.656-2.344C108.78,202.532,108.78,197.468,105.656,194.344z"/>
<path style="fill:#992B1F;" d="M96,188c0,4.4-3.6,8-8,8H72c-4.4,0-8-3.6-8-8v-4c0-4.4,3.6-8,8-8h16c4.4,0,8,3.6,8,8V188z"/>
<path style="fill:#80241A;" d="M88,176h-4c4.4,0,8,3.6,8,8v4c0,4.4-3.6,8-8,8h4c4.4,0,8-3.6,8-8v-4C96,179.6,92.4,176,88,176z"/>
<path style="fill:#992B1F;" d="M408,208c2.048,0,4.092-0.78,5.656-2.344l12-12c3.124-3.124,3.124-8.188,0-11.312
	s-8.188-3.124-11.312,0l-12,12c-3.124,3.124-3.124,8.188,0,11.312C403.908,207.22,405.952,208,408,208z"/>
<path style="fill:#80241A;" d="M402.344,194.344l12-12c2.08-2.08,5.004-2.744,7.656-2.056c-1.336,0.344-2.608,1.008-3.656,2.056
	l-12,12c-3.124,3.124-3.124,8.188,0,11.312c1.048,1.048,2.32,1.712,3.656,2.056c-0.656,0.168-1.324,0.288-2,0.288
	c-2.048,0-4.092-0.78-5.656-2.344C399.22,202.532,399.22,197.468,402.344,194.344z"/>
<path style="fill:#992B1F;" d="M412,188c0,4.4,3.6,8,8,8h16c4.4,0,8-3.6,8-8v-4c0-4.4-3.6-8-8-8h-16c-4.4,0-8,3.6-8,8V188z"/>
<path style="fill:#80241A;" d="M420,176h4c-4.4,0-8,3.6-8,8v4c0,4.4,3.6,8,8,8h-4c-4.4,0-8-3.6-8-8v-4C412,179.6,415.6,176,420,176z
	"/>
<path style="fill:#C2E2F2;" d="M377.108,124.512C371.292,111.428,358.736,104,344.956,104H256h-88.956
	c-13.776,0-26.336,7.424-32.152,20.512L100,204h156h156L377.108,124.512z"/>
<g>
	<path style="fill:#1A1A1A;" d="M228,200c0,8.8-7.2,16-16,16h-56c-8.8,0-16-7.2-16-16v-24c0-8.8,7.2-16,16-16h56c8.8,0,16,7.2,16,16
		V200z"/>
	<path style="fill:#1A1A1A;" d="M372,200c0,8.8-7.2,16-16,16h-56c-8.8,0-16-7.2-16-16v-24c0-8.8,7.2-16,16-16h56c8.8,0,16,7.2,16,16
		V200z"/>
</g>
<path style="fill:#263740;" d="M328,236c-15.436,0-28-12.56-28-28s12.564-28,28-28s28,12.56,28,28S343.436,236,328,236z M328,188
	c-11.028,0-20,8.972-20,20s8.972,20,20,20s20-8.972,20-20S339.028,188,328,188z"/>
<path style="fill:#992B1F;" d="M412,208H100c-1.352,0-2.608-0.68-3.348-1.812s-0.86-2.56-0.316-3.796l34.892-79.488
	C137.512,108.768,151.236,100,167.044,100H344.96c15.804,0,29.532,8.768,35.812,22.888l34.896,79.504
	c0.544,1.236,0.416,2.664-0.316,3.796C414.616,207.32,413.352,208,412,208z M106.124,200h299.752l-32.42-73.88
	C368.488,114.952,357.564,108,344.96,108H167.048c-12.608,0-23.532,6.948-28.5,18.136L106.124,200z"/>
<path style="fill:#CC584C;" d="M436.564,210.532L412,200H256H100l-24.564,10.532C65.9,214.384,60,223.76,60,234.46v50.632
	C60,312.196,62.132,336,88,336h168h168c25.868,0,28-23.804,28-50.908V234.46C452,223.756,446.092,214.384,436.564,210.532z"/>
<path style="fill:#BF5347;" d="M436.564,210.532L412,200h-12l24.564,10.532C434.104,214.384,440,223.76,440,234.46v50.632
	c0,27.104-2.132,50.908-28,50.908h12c25.868,0,28-23.804,28-50.908V234.46C452,223.756,446.092,214.384,436.564,210.532z"/>
<path style="fill:#B34D43;" d="M432,284c0,13.2-10.8,24-24,24H104c-13.2,0-24-10.8-24-24v-20c0-13.2,10.8-24,24-24h304
	c13.2,0,24,10.8,24,24V284z"/>
<g>
	<path style="fill:#802920;" d="M324,288H188c-2.212,0-4,1.792-4,4s1.788,4,4,4h136c2.212,0,4-1.792,4-4S326.212,288,324,288z"/>
	<path style="fill:#802920;" d="M324,276H188c-2.212,0-4,1.792-4,4s1.788,4,4,4h136c2.212,0,4-1.792,4-4S326.212,276,324,276z"/>
	<path style="fill:#802920;" d="M324,264H188c-2.212,0-4,1.792-4,4s1.788,4,4,4h136c2.212,0,4-1.792,4-4S326.212,264,324,264z"/>
	<path style="fill:#802920;" d="M188,260h136c2.212,0,4-1.792,4-4s-1.788-4-4-4H188c-2.212,0-4,1.792-4,4
		C184,258.208,185.788,260,188,260z"/>
</g>
<g>
	<path style="fill:#E6F7FF;" d="M156,152c-1.024,0-2.048-0.392-2.828-1.172c-1.564-1.564-1.564-4.092,0-5.656l20-20
		c1.564-1.564,4.092-1.564,5.656,0s1.564,4.092,0,5.656l-20,20C158.048,151.608,157.024,152,156,152z"/>
	<path style="fill:#E6F7FF;" d="M156,184c-1.024,0-2.048-0.392-2.828-1.172c-1.564-1.564-1.564-4.092,0-5.656l52-52
		c1.564-1.564,4.092-1.564,5.656,0s1.564,4.092,0,5.656l-52,52C158.048,183.608,157.024,184,156,184z"/>
</g>
<g>
	<path style="fill:#242424;" d="M108,336v24c0,18.48,14.28,16,32,16s32,2.48,32-16v-24H108z"/>
	<path style="fill:#242424;" d="M340,336v24c0,18.48,14.28,16,32,16s32,2.48,32-16v-24H340z"/>
</g>
<g>
	<path style="fill:#1A1A1A;" d="M360,376c-1,0-1.984,0.008-2.956,0.02c2.768,0.128,5.776,0.088,8.956,0.044
		C364.056,376.032,362.056,376,360,376z"/>
	<path style="fill:#1A1A1A;" d="M392,336v24c0,12.836-6.9,15.556-17.044,16.02C391.28,376.22,404,377.436,404,360v-24H392z"/>
	<path style="fill:#1A1A1A;" d="M128,376c-1,0-1.984,0.008-2.956,0.02c2.768,0.128,5.776,0.088,8.956,0.044
		C132.056,376.032,130.056,376,128,376z"/>
	<path style="fill:#1A1A1A;" d="M160,336v24c0,12.836-6.9,15.556-17.044,16.02C159.28,376.22,172,377.436,172,360v-24H160z"/>
</g>
<path style="fill:#F5F5F5;" d="M136,272c0,8.844-7.156,16-16.004,16c-8.84,0-15.996-7.156-15.996-16s7.156-16,15.996-16
	C128.844,256,136,263.156,136,272z"/>
<path style="fill:#263740;" d="M119.996,292C108.968,292,100,283.028,100,272s8.968-20,19.996-20c11.032,0,20.004,8.972,20.004,20
	S131.028,292,119.996,292z M119.996,260c-6.612,0-11.996,5.384-11.996,12s5.384,12,11.996,12S132,278.616,132,272
	S126.608,260,119.996,260z"/>
<path style="fill:#F5F5F5;" d="M408,272c0,8.844-7.156,16-16.004,16c-8.84,0-15.996-7.156-15.996-16s7.156-16,15.996-16
	C400.844,256,408,263.156,408,272z"/>
<g>
	<path style="fill:#263740;" d="M391.996,292C380.968,292,372,283.028,372,272s8.968-20,19.996-20c11.032,0,20.004,8.972,20.004,20
		S403.028,292,391.996,292z M391.996,260c-6.612,0-11.996,5.384-11.996,12s5.384,12,11.996,12S404,278.616,404,272
		S398.608,260,391.996,260z"/>
	<rect x="252" y="108" style="fill:#263740;" width="8" height="12"/>
	<path style="fill:#263740;" d="M276.42,124.844C278.392,128.78,276.4,132,272,132h-32c-4.4,0-6.392-3.22-4.42-7.156l0.844-1.688
		C238.392,119.22,243.6,116,248,116h16c4.4,0,9.608,3.22,11.58,7.156L276.42,124.844z"/>
</g>
<g>
</g>
<g>
</g>
<g>
</g>
<g>
</g>
<g>
</g>
<g>
</g>
<g>
</g>
<g>
</g>
<g>
</g>
<g>
</g>
<g>
</g>
<g>
</g>
<g>
</g>
<g>
</g>
<g>
</g>
</svg>
