<svg width="2624" height="587" viewBox="0 0 2624 587" fill="none" xmlns="http://www.w3.org/2000/svg">
<path fill-rule="evenodd" clip-rule="evenodd" d="M0 190.324C0 85.2107 85.2464 0 190.403 0H259.597C364.754 0 450 85.2107 450 190.323V500.232C450 583.348 344.235 618.732 294.182 552.361C259.521 506.4 190.479 506.4 155.818 552.361C105.765 618.732 0 583.348 0 500.232V190.324ZM125.258 112.216C101.061 112.216 81.7606 131.613 81.7606 155.153C81.7606 167.399 71.8289 177.327 59.5775 177.327C47.3261 177.327 37.3944 167.399 37.3944 155.153C37.3944 106.774 76.9061 67.8688 125.258 67.8688C173.61 67.8688 213.121 106.774 213.121 155.153C213.121 167.399 203.19 177.327 190.938 177.327C178.687 177.327 168.755 167.399 168.755 155.153C168.755 131.613 149.455 112.216 125.258 112.216ZM282.84 155.153C282.84 131.613 302.14 112.216 326.337 112.216C350.534 112.216 369.834 131.613 369.834 155.153C369.834 167.399 379.766 177.327 392.017 177.327C404.269 177.327 414.2 167.399 414.2 155.153C414.2 106.774 374.689 67.8688 326.337 67.8688C277.985 67.8688 238.473 106.774 238.473 155.153C238.473 167.399 248.405 177.327 260.657 177.327C272.908 177.327 282.84 167.399 282.84 155.153ZM125.258 268.481C101.061 268.481 81.7606 287.878 81.7606 311.418C81.7606 323.664 71.8288 333.591 59.5775 333.591C47.3261 333.591 37.3944 323.664 37.3944 311.418C37.3944 263.039 76.9061 224.134 125.258 224.134C173.61 224.134 213.121 263.039 213.121 311.418C213.121 323.664 203.19 333.591 190.938 333.591C178.687 333.591 168.755 323.664 168.755 311.418C168.755 287.878 149.455 268.481 125.258 268.481ZM282.84 311.418C282.84 287.878 302.14 268.481 326.337 268.481C350.534 268.481 369.834 287.878 369.834 311.418C369.834 323.664 379.766 333.591 392.017 333.591C404.269 333.591 414.2 323.664 414.2 311.418C414.2 263.039 374.689 224.134 326.337 224.134C277.985 224.134 238.473 263.039 238.473 311.418C238.473 323.664 248.405 333.591 260.657 333.591C272.908 333.591 282.84 323.664 282.84 311.418ZM125.258 424.746C101.061 424.746 81.7606 444.142 81.7606 467.682C81.7606 479.929 71.8288 489.856 59.5775 489.856C47.3261 489.856 37.3944 479.929 37.3944 467.682C37.3944 419.304 76.9061 380.398 125.258 380.398C173.61 380.398 213.121 419.304 213.121 467.682C213.121 479.929 203.19 489.856 190.938 489.856C178.687 489.856 168.755 479.929 168.755 467.682C168.755 444.142 149.455 424.746 125.258 424.746ZM282.84 467.682C282.84 444.142 302.14 424.746 326.337 424.746C350.534 424.746 369.834 444.142 369.834 467.682C369.834 479.929 379.766 489.856 392.017 489.856C404.269 489.856 414.2 479.929 414.2 467.682C414.2 419.304 374.689 380.398 326.337 380.398C277.985 380.398 238.473 419.304 238.473 467.682C238.473 479.929 248.405 489.856 260.657 489.856C272.908 489.856 282.84 479.929 282.84 467.682Z" fill="#EBC4F5"/>
<path d="M717.5 334C722.833 340.667 729.5 349.5 737.5 360.5C745.833 371.167 754.333 383.167 763 396.5C771.667 409.5 780.167 423.167 788.5 437.5C797.167 451.833 804.5 465.667 810.5 479H757.5C750.833 466.333 743.5 453.5 735.5 440.5C727.833 427.5 720 415.167 712 403.5C704 391.5 696 380.333 688 370C680.333 359.667 673.333 350.667 667 343C662.667 343.333 658.167 343.5 653.5 343.5C649.167 343.5 644.667 343.5 640 343.5H596.5V479H548V137.5C561.667 134.167 576.833 132 593.5 131C610.5 129.667 626 129 640 129C688.667 129 725.667 138.167 751 156.5C776.667 174.833 789.5 202.167 789.5 238.5C789.5 261.5 783.333 281.167 771 297.5C759 313.833 741.167 326 717.5 334ZM644 171.5C623.333 171.5 607.5 172 596.5 173V303.5H631C647.667 303.5 662.667 302.667 676 301C689.333 299.333 700.5 296.167 709.5 291.5C718.833 286.833 726 280.333 731 272C736 263.333 738.5 252 738.5 238C738.5 225 736 214.167 731 205.5C726 196.833 719.167 190 710.5 185C702.167 180 692.167 176.5 680.5 174.5C669.167 172.5 657 171.5 644 171.5Z" fill="#1E1E1E"/>
<path d="M897.5 479H851V219H897.5V479ZM874 172C865.667 172 858.5 169.333 852.5 164C846.833 158.333 844 150.833 844 141.5C844 132.167 846.833 124.833 852.5 119.5C858.5 113.833 865.667 111 874 111C882.333 111 889.333 113.833 895 119.5C901 124.833 904 132.167 904 141.5C904 150.833 901 158.333 895 164C889.333 169.333 882.333 172 874 172Z" fill="#1E1E1E"/>
<path d="M1122 274C1116.33 269.333 1108.17 264.833 1097.5 260.5C1086.83 256.167 1075.17 254 1062.5 254C1049.17 254 1037.67 256.5 1028 261.5C1018.67 266.167 1011 272.833 1005 281.5C999 289.833 994.667 299.833 992 311.5C989.333 323.167 988 335.667 988 349C988 379.333 995.5 402.833 1010.5 419.5C1025.5 435.833 1045.5 444 1070.5 444C1083.17 444 1093.67 443.5 1102 442.5C1110.67 441.167 1117.33 439.833 1122 438.5V274ZM1122 99L1168.5 91V471.5C1157.83 474.5 1144.17 477.5 1127.5 480.5C1110.83 483.5 1091.67 485 1070 485C1050 485 1032 481.833 1016 475.5C1000 469.167 986.333 460.167 975 448.5C963.667 436.833 954.833 422.667 948.5 406C942.5 389 939.5 370 939.5 349C939.5 329 942 310.667 947 294C952.333 277.333 960 263 970 251C980 239 992.167 229.667 1006.5 223C1021.17 216.333 1037.83 213 1056.5 213C1071.5 213 1084.67 215 1096 219C1107.67 223 1116.33 226.833 1122 230.5V99Z" fill="#1E1E1E"/>
<path d="M2369.5 349.5C2369.5 326.5 2372.83 306.5 2379.5 289.5C2386.17 272.167 2395 257.833 2406 246.5C2417 235.167 2429.67 226.667 2444 221C2458.33 215.333 2473 212.5 2488 212.5C2523 212.5 2549.83 223.5 2568.5 245.5C2587.17 267.167 2596.5 300.333 2596.5 345C2596.5 347 2596.5 349.667 2596.5 353C2596.5 356 2596.33 358.833 2596 361.5H2418C2420 388.5 2427.83 409 2441.5 423C2455.17 437 2476.5 444 2505.5 444C2521.83 444 2535.5 442.667 2546.5 440C2557.83 437 2566.33 434.167 2572 431.5L2578.5 470.5C2572.83 473.5 2562.83 476.667 2548.5 480C2534.5 483.333 2518.5 485 2500.5 485C2477.83 485 2458.17 481.667 2441.5 475C2425.17 468 2411.67 458.5 2401 446.5C2390.33 434.5 2382.33 420.333 2377 404C2372 387.333 2369.5 369.167 2369.5 349.5ZM2548 324C2548.33 303 2543 285.833 2532 272.5C2521.33 258.833 2506.5 252 2487.5 252C2476.83 252 2467.33 254.167 2459 258.5C2451 262.5 2444.17 267.833 2438.5 274.5C2432.83 281.167 2428.33 288.833 2425 297.5C2422 306.167 2420 315 2419 324H2548Z" fill="#1E1E1E"/>
<path d="M1563.5 444.5C1614.17 444.5 1639.5 427.167 1639.5 392.5C1639.5 381.833 1637.17 372.833 1632.5 365.5C1628.17 357.833 1622.17 351.333 1614.5 346C1606.83 340.333 1598 335.5 1588 331.5C1578.33 327.5 1568 323.5 1557 319.5C1544.33 315.167 1532.33 310.333 1521 305C1509.67 299.333 1499.83 292.833 1491.5 285.5C1483.17 277.833 1476.5 268.833 1471.5 258.5C1466.83 248.167 1464.5 235.667 1464.5 221C1464.5 190.667 1474.83 167 1495.5 150C1516.17 133 1544.67 124.5 1581 124.5C1602 124.5 1621 126.833 1638 131.5C1655.33 135.833 1668 140.667 1676 146L1660.5 185.5C1653.5 181.167 1643 177 1629 173C1615.33 168.667 1599.33 166.5 1581 166.5C1571.67 166.5 1563 167.5 1555 169.5C1547 171.5 1540 174.5 1534 178.5C1528 182.5 1523.17 187.667 1519.5 194C1516.17 200 1514.5 207.167 1514.5 215.5C1514.5 224.833 1516.33 232.667 1520 239C1523.67 245.333 1528.83 251 1535.5 256C1542.17 260.667 1549.83 265 1558.5 269C1567.5 273 1577.33 277 1588 281C1603 287 1616.67 293 1629 299C1641.67 305 1652.5 312.167 1661.5 320.5C1670.83 328.833 1678 338.833 1683 350.5C1688 361.833 1690.5 375.667 1690.5 392C1690.5 422.333 1679.33 445.667 1657 462C1635 478.333 1603.83 486.5 1563.5 486.5C1549.83 486.5 1537.17 485.5 1525.5 483.5C1514.17 481.833 1504 479.833 1495 477.5C1486 474.833 1478.17 472.167 1471.5 469.5C1465.17 466.5 1460.17 464 1456.5 462L1471 422C1478.67 426.333 1490.33 431.167 1506 436.5C1521.67 441.833 1540.83 444.5 1563.5 444.5Z" fill="#1E1E1E"/>
<path d="M1728 479V99L1774.5 91V224C1783.17 220.667 1792.33 218.167 1802 216.5C1812 214.5 1821.83 213.5 1831.5 213.5C1852.17 213.5 1869.33 216.5 1883 222.5C1896.67 228.167 1907.5 236.333 1915.5 247C1923.83 257.333 1929.67 269.833 1933 284.5C1936.33 299.167 1938 315.333 1938 333V479H1891.5V343C1891.5 327 1890.33 313.333 1888 302C1886 290.667 1882.5 281.5 1877.5 274.5C1872.5 267.5 1865.83 262.5 1857.5 259.5C1849.17 256.167 1838.83 254.5 1826.5 254.5C1821.5 254.5 1816.33 254.833 1811 255.5C1805.67 256.167 1800.5 257 1795.5 258C1790.83 258.667 1786.5 259.5 1782.5 260.5C1778.83 261.5 1776.17 262.333 1774.5 263V479H1728Z" fill="#1E1E1E"/>
<path d="M2079 445.5C2090 445.5 2099.67 445.333 2108 445C2116.67 444.333 2123.83 443.333 2129.5 442V364.5C2126.17 362.833 2120.67 361.5 2113 360.5C2105.67 359.167 2096.67 358.5 2086 358.5C2079 358.5 2071.5 359 2063.5 360C2055.83 361 2048.67 363.167 2042 366.5C2035.67 369.5 2030.33 373.833 2026 379.5C2021.67 384.833 2019.5 392 2019.5 401C2019.5 417.667 2024.83 429.333 2035.5 436C2046.17 442.333 2060.67 445.5 2079 445.5ZM2075 212.5C2093.67 212.5 2109.33 215 2122 220C2135 224.667 2145.33 231.5 2153 240.5C2161 249.167 2166.67 259.667 2170 272C2173.33 284 2175 297.333 2175 312V474.5C2171 475.167 2165.33 476.167 2158 477.5C2151 478.5 2143 479.5 2134 480.5C2125 481.5 2115.17 482.333 2104.5 483C2094.17 484 2083.83 484.5 2073.5 484.5C2058.83 484.5 2045.33 483 2033 480C2020.67 477 2010 472.333 2001 466C1992 459.333 1985 450.667 1980 440C1975 429.333 1972.5 416.5 1972.5 401.5C1972.5 387.167 1975.33 374.833 1981 364.5C1987 354.167 1995 345.833 2005 339.5C2015 333.167 2026.67 328.5 2040 325.5C2053.33 322.5 2067.33 321 2082 321C2086.67 321 2091.5 321.333 2096.5 322C2101.5 322.333 2106.17 323 2110.5 324C2115.17 324.667 2119.17 325.333 2122.5 326C2125.83 326.667 2128.17 327.167 2129.5 327.5V314.5C2129.5 306.833 2128.67 299.333 2127 292C2125.33 284.333 2122.33 277.667 2118 272C2113.67 266 2107.67 261.333 2100 258C2092.67 254.333 2083 252.5 2071 252.5C2055.67 252.5 2042.17 253.667 2030.5 256C2019.17 258 2010.67 260.167 2005 262.5L1999.5 224C2005.5 221.333 2015.5 218.833 2029.5 216.5C2043.5 213.833 2058.67 212.5 2075 212.5Z" fill="#1E1E1E"/>
<path d="M2318 213.5C2322 213.5 2326.5 213.833 2331.5 214.5C2336.83 214.833 2342 215.5 2347 216.5C2352 217.167 2356.5 218 2360.5 219C2364.83 219.667 2368 220.333 2370 221L2362 261.5C2358.33 260.167 2352.17 258.667 2343.5 257C2335.17 255 2324.33 254 2311 254C2302.33 254 2293.67 255 2285 257C2276.67 258.667 2271.17 259.833 2268.5 260.5V479H2222V230C2233 226 2246.67 222.333 2263 219C2279.33 215.333 2297.67 213.5 2318 213.5Z" fill="#1E1E1E"/>
<path d="M1207.5 349.5C1207.5 326.5 1210.83 306.5 1217.5 289.5C1224.17 272.167 1233 257.833 1244 246.5C1255 235.167 1267.67 226.667 1282 221C1296.33 215.333 1311 212.5 1326 212.5C1361 212.5 1387.83 223.5 1406.5 245.5C1425.17 267.167 1434.5 300.333 1434.5 345C1434.5 347 1434.5 349.667 1434.5 353C1434.5 356 1434.33 358.833 1434 361.5H1256C1258 388.5 1265.83 409 1279.5 423C1293.17 437 1314.5 444 1343.5 444C1359.83 444 1373.5 442.667 1384.5 440C1395.83 437 1404.33 434.167 1410 431.5L1416.5 470.5C1410.83 473.5 1400.83 476.667 1386.5 480C1372.5 483.333 1356.5 485 1338.5 485C1315.83 485 1296.17 481.667 1279.5 475C1263.17 468 1249.67 458.5 1239 446.5C1228.33 434.5 1220.33 420.333 1215 404C1210 387.333 1207.5 369.167 1207.5 349.5ZM1386 324C1386.33 303 1381 285.833 1370 272.5C1359.33 258.833 1344.5 252 1325.5 252C1314.83 252 1305.33 254.167 1297 258.5C1289 262.5 1282.17 267.833 1276.5 274.5C1270.83 281.167 1266.33 288.833 1263 297.5C1260 306.167 1258 315 1257 324H1386Z" fill="#1E1E1E"/>
</svg>
