<svg width="1505" height="254" viewBox="0 0 1505 254" fill="none" xmlns="http://www.w3.org/2000/svg">
<path fill-rule="evenodd" clip-rule="evenodd" d="M133.5 233.947C195.588 233.947 245.921 186.065 245.921 127C245.921 67.9346 195.588 20.0526 133.5 20.0526C71.4116 20.0526 21.0789 67.9346 21.0789 127C21.0789 186.065 71.4116 233.947 133.5 233.947ZM133.5 254C207.23 254 267 197.14 267 127C267 56.8598 207.23 0 133.5 0C59.77 0 0 56.8598 0 127C0 197.14 59.77 254 133.5 254Z" fill="url(#paint0_linear_6_16)"/>
<path fill-rule="evenodd" clip-rule="evenodd" d="M74.4789 175.126L74.479 24.0632H99.7737L99.7737 175.126H74.4789Z" fill="url(#paint1_linear_6_16)"/>
<path fill-rule="evenodd" clip-rule="evenodd" d="M139.746 205.874L139.746 122.989H165.509V205.874H139.746Z" fill="url(#paint2_linear_6_16)"/>
<path fill-rule="evenodd" clip-rule="evenodd" d="M107.112 205.874L107.112 84.221H132.875L132.875 205.874H107.112Z" fill="url(#paint3_linear_6_16)"/>
<path fill-rule="evenodd" clip-rule="evenodd" d="M172.379 167.105V122.989H198.142V167.105H172.379Z" fill="url(#paint4_linear_6_16)"/>
<path d="M322.572 186V78.7002H387.611L386.806 94.4473H342.421V122.133H384.608V137.88H342.421V170.18H388.417L387.758 186H322.572ZM405.116 186V105.507H420.57L422.694 115.688C430.897 107.582 440.004 103.529 450.014 103.529C459.389 103.529 466.396 106.239 471.034 111.659C475.722 117.03 478.065 124.843 478.065 135.097V186H458.803V137.44C458.754 130.946 457.704 126.088 455.653 122.865C453.603 119.643 449.916 118.031 444.594 118.031C440.443 118.031 436.635 119.105 433.168 121.254C429.75 123.354 427.26 126.015 425.697 129.237C424.77 133.046 424.306 138.905 424.306 146.815V186H405.116ZM518.349 186L486.269 105.507H506.63C507.411 107.704 509.877 114.54 514.027 126.015C518.227 137.44 521.01 145.229 522.377 149.379C525.16 157.484 527.162 163.612 528.383 167.763C528.383 167.714 528.798 166.127 529.628 163.002C530.458 159.877 531.239 156.947 531.972 154.213C532.753 151.43 533.241 149.745 533.437 149.159C533.485 149.062 535.707 142.323 540.102 128.944C544.545 115.565 547.182 107.753 548.012 105.507H568.227L537.758 186H518.349ZM578.7 186V105.507H597.89V186H578.7ZM578.7 93.7881V77.3818H597.963V93.7881H578.7ZM618.031 186V105.507H634.145L636.635 117.812C641.908 109.364 649.55 105.141 659.56 105.141C661.659 105.141 663.368 105.238 664.687 105.434L664.394 121.474C662.44 121.181 660.414 121.034 658.314 121.034C651.234 121.034 645.937 122.914 642.421 126.674C638.954 130.434 637.221 135.658 637.221 142.348V186H618.031ZM710.756 172.963C717.25 172.963 722.133 170.595 725.404 165.858C728.676 161.122 730.312 154.335 730.312 145.497C730.312 136.562 728.676 129.75 725.404 125.062C722.133 120.375 717.201 118.031 710.609 118.031C704.115 118.031 699.208 120.399 695.888 125.136C692.616 129.823 690.98 136.635 690.98 145.57C690.98 154.359 692.641 161.122 695.961 165.858C699.281 170.595 704.213 172.963 710.756 172.963ZM710.243 187.538C698.329 187.538 688.954 183.681 682.118 175.966C675.282 168.251 671.864 158.095 671.864 145.497C671.864 132.509 675.282 122.279 682.118 114.809C688.954 107.289 698.598 103.529 711.049 103.529C723.061 103.529 732.46 107.362 739.247 115.028C746.083 122.646 749.501 132.802 749.501 145.497C749.501 158.339 746.059 168.568 739.174 176.186C732.289 183.754 722.646 187.538 710.243 187.538ZM765.175 186V105.507H780.629L782.753 115.688C790.956 107.582 800.062 103.529 810.072 103.529C819.447 103.529 826.454 106.239 831.093 111.659C835.78 117.03 838.124 124.843 838.124 135.097V186H818.861V137.44C818.812 130.946 817.763 126.088 815.712 122.865C813.661 119.643 809.975 118.031 804.652 118.031C800.502 118.031 796.693 119.105 793.227 121.254C789.809 123.354 787.318 126.015 785.756 129.237C784.828 133.046 784.364 138.905 784.364 146.815V186H765.175ZM898.549 186V78.7002H918.397V170.18H963.295L962.709 186H898.549ZM1010.32 172.963C1016.81 172.963 1021.69 170.595 1024.96 165.858C1028.24 161.122 1029.87 154.335 1029.87 145.497C1029.87 136.562 1028.24 129.75 1024.96 125.062C1021.69 120.375 1016.76 118.031 1010.17 118.031C1003.68 118.031 998.769 120.399 995.448 125.136C992.177 129.823 990.541 136.635 990.541 145.57C990.541 154.359 992.201 161.122 995.521 165.858C998.842 170.595 1003.77 172.963 1010.32 172.963ZM1009.8 187.538C997.89 187.538 988.515 183.681 981.679 175.966C974.843 168.251 971.425 158.095 971.425 145.497C971.425 132.509 974.843 122.279 981.679 114.809C988.515 107.289 998.158 103.529 1010.61 103.529C1022.62 103.529 1032.02 107.362 1038.81 115.028C1045.64 122.646 1049.06 132.802 1049.06 145.497C1049.06 158.339 1045.62 168.568 1038.73 176.186C1031.85 183.754 1022.21 187.538 1009.8 187.538ZM1080.85 222.035L1079.75 206.508H1089.49C1100.77 206.508 1108.66 204.994 1113.15 201.967C1117.64 198.988 1119.89 193.495 1119.89 185.487C1119.89 182.216 1119.74 178.676 1119.45 174.867C1118.18 176.625 1116.96 178.09 1115.79 179.262C1114.66 180.385 1113.22 181.508 1111.46 182.631C1109.75 183.754 1107.68 184.608 1105.24 185.194C1102.85 185.731 1100.11 186 1097.04 186C1086.39 186 1077.63 182.167 1070.74 174.501C1063.91 166.835 1060.49 156.947 1060.49 144.838C1060.49 138.393 1061.44 132.533 1063.34 127.26C1065.25 121.938 1067.84 117.567 1071.11 114.149C1074.38 110.731 1078.14 108.119 1082.39 106.312C1086.68 104.457 1091.25 103.529 1096.08 103.529C1106.87 103.529 1114.91 107.46 1120.18 115.321L1121.5 105.507H1138.64V180.287C1138.64 184.291 1138.44 187.88 1138.05 191.054C1137.66 194.276 1136.98 197.353 1136 200.282C1135.02 203.261 1133.73 205.849 1132.12 208.046C1130.56 210.243 1128.58 212.245 1126.19 214.052C1123.79 215.858 1120.96 217.323 1117.69 218.446C1114.47 219.618 1110.71 220.497 1106.41 221.083C1102.11 221.718 1097.28 222.035 1091.91 222.035H1080.85ZM1100.11 172.597C1113.34 172.597 1120.03 163.734 1120.18 146.01V143.227C1120.08 135.268 1118.42 129.115 1115.2 124.77C1111.98 120.424 1107.26 118.227 1101.06 118.178C1094.03 118.178 1088.71 120.595 1085.1 125.429C1081.48 130.214 1079.68 136.684 1079.68 144.838C1079.68 152.699 1081.48 159.291 1085.1 164.613C1088.76 169.936 1093.76 172.597 1100.11 172.597ZM1158.05 186V105.507H1177.24V186H1158.05ZM1158.05 93.7881V77.3818H1177.31V93.7881H1158.05ZM1223.01 187.465C1211.15 187.465 1201.65 185.438 1194.52 181.386L1196.5 166.957C1199.72 168.715 1203.82 170.302 1208.8 171.718C1213.78 173.085 1218.32 173.769 1222.43 173.769C1226.67 173.769 1229.97 172.987 1232.31 171.425C1234.71 169.813 1235.93 167.47 1235.98 164.394C1235.98 161.61 1234.85 159.413 1232.61 157.802C1230.41 156.19 1226.19 154.188 1219.94 151.796C1217.79 151.015 1216.4 150.502 1215.76 150.258C1208.34 147.377 1202.99 144.179 1199.72 140.663C1196.45 137.099 1194.81 132.289 1194.81 126.234C1194.81 118.91 1197.45 113.295 1202.72 109.389C1208.05 105.482 1215.44 103.529 1224.92 103.529C1235.17 103.529 1244.18 105.458 1251.94 109.315L1247.18 122.572C1239.52 119.008 1232.22 117.226 1225.28 117.226C1221.42 117.226 1218.4 117.885 1216.2 119.203C1214.05 120.473 1212.98 122.426 1212.98 125.062C1212.98 127.553 1214.03 129.506 1216.13 130.922C1218.23 132.289 1222.33 134.096 1228.43 136.342C1228.63 136.391 1229.26 136.61 1230.34 137.001C1231.41 137.392 1232.24 137.709 1232.83 137.953C1240.2 140.639 1245.62 143.861 1249.09 147.621C1252.55 151.332 1254.29 156.19 1254.29 162.196C1254.24 170.253 1251.5 176.479 1246.08 180.873C1240.66 185.268 1232.97 187.465 1223.01 187.465ZM1301.67 187.099C1296.21 187.099 1291.64 186.464 1287.98 185.194C1284.36 183.876 1281.53 181.825 1279.48 179.042C1277.43 176.259 1275.97 172.987 1275.09 169.228C1274.26 165.419 1273.84 160.731 1273.84 155.165V117.152H1260.66L1261.39 106.752L1275.16 105.507L1281.31 83.6807L1293.03 83.6074V105.507H1313.03V117.152H1293.03V155.531C1293.03 161.635 1293.91 165.98 1295.67 168.568C1297.43 171.156 1300.67 172.45 1305.41 172.45C1308.19 172.45 1311.17 172.206 1314.34 171.718L1314.86 185.487C1314.76 185.487 1314.15 185.609 1313.03 185.854C1311.95 186.049 1310.9 186.22 1309.88 186.366C1308.9 186.562 1307.63 186.732 1306.07 186.879C1304.51 187.025 1303.04 187.099 1301.67 187.099ZM1328.85 186V105.507H1348.04V186H1328.85ZM1328.85 93.7881V77.3818H1348.11V93.7881H1328.85ZM1403.33 187.538C1391.03 187.538 1381.43 183.876 1374.55 176.552C1367.71 169.228 1364.3 158.754 1364.3 145.131C1364.3 131.947 1367.88 121.718 1375.06 114.442C1382.29 107.167 1391.79 103.529 1403.55 103.529C1412.98 103.529 1420.94 105.556 1427.43 109.608L1422.89 123.305C1416.25 119.838 1410.07 118.104 1404.36 118.104C1397.87 118.104 1392.74 120.424 1388.98 125.062C1385.27 129.701 1383.41 136.464 1383.41 145.351C1383.41 154.335 1385.24 161.171 1388.91 165.858C1392.62 170.546 1397.84 172.89 1404.58 172.89C1411.61 172.89 1418.37 170.814 1424.87 166.664L1426.7 181.239C1423.33 183.485 1419.84 185.097 1416.22 186.073C1412.61 187.05 1408.31 187.538 1403.33 187.538ZM1467.64 187.465C1455.78 187.465 1446.28 185.438 1439.15 181.386L1441.13 166.957C1444.35 168.715 1448.45 170.302 1453.43 171.718C1458.41 173.085 1462.95 173.769 1467.05 173.769C1471.3 173.769 1474.6 172.987 1476.94 171.425C1479.33 169.813 1480.56 167.47 1480.6 164.394C1480.6 161.61 1479.48 159.413 1477.24 157.802C1475.04 156.19 1470.81 154.188 1464.56 151.796C1462.42 151.015 1461.02 150.502 1460.39 150.258C1452.97 147.377 1447.62 144.179 1444.35 140.663C1441.08 137.099 1439.44 132.289 1439.44 126.234C1439.44 118.91 1442.08 113.295 1447.35 109.389C1452.67 105.482 1460.07 103.529 1469.54 103.529C1479.8 103.529 1488.81 105.458 1496.57 109.315L1491.81 122.572C1484.14 119.008 1476.84 117.226 1469.91 117.226C1466.05 117.226 1463.03 117.885 1460.83 119.203C1458.68 120.473 1457.61 122.426 1457.61 125.062C1457.61 127.553 1458.66 129.506 1460.76 130.922C1462.86 132.289 1466.96 134.096 1473.06 136.342C1473.26 136.391 1473.89 136.61 1474.96 137.001C1476.04 137.392 1476.87 137.709 1477.46 137.953C1484.83 140.639 1490.25 143.861 1493.71 147.621C1497.18 151.332 1498.92 156.19 1498.92 162.196C1498.87 170.253 1496.13 176.479 1490.71 180.873C1485.29 185.268 1477.6 187.465 1467.64 187.465Z" fill="black"/>
<defs>
<linearGradient id="paint0_linear_6_16" x1="232.571" y1="50.8" x2="24.5588" y2="115.355" gradientUnits="userSpaceOnUse">
<stop stop-color="#680DFE"/>
<stop offset="1" stop-color="#FB26FF"/>
</linearGradient>
<linearGradient id="paint1_linear_6_16" x1="232.571" y1="50.8" x2="24.5588" y2="115.355" gradientUnits="userSpaceOnUse">
<stop stop-color="#680DFE"/>
<stop offset="1" stop-color="#FB26FF"/>
</linearGradient>
<linearGradient id="paint2_linear_6_16" x1="232.571" y1="50.8" x2="24.5588" y2="115.355" gradientUnits="userSpaceOnUse">
<stop stop-color="#680DFE"/>
<stop offset="1" stop-color="#FB26FF"/>
</linearGradient>
<linearGradient id="paint3_linear_6_16" x1="232.571" y1="50.8" x2="24.5588" y2="115.355" gradientUnits="userSpaceOnUse">
<stop stop-color="#680DFE"/>
<stop offset="1" stop-color="#FB26FF"/>
</linearGradient>
<linearGradient id="paint4_linear_6_16" x1="232.571" y1="50.8" x2="24.5588" y2="115.355" gradientUnits="userSpaceOnUse">
<stop stop-color="#680DFE"/>
<stop offset="1" stop-color="#FB26FF"/>
</linearGradient>
</defs>
</svg>
