<svg width="492" height="533" viewBox="0 0 492 533" fill="none" xmlns="http://www.w3.org/2000/svg">
<g filter="url(#filter0_d_1_113)">
<path d="M209.401 164.269L414.802 438.961H4L209.401 164.269Z" fill="#006738"/>
</g>
<g filter="url(#filter1_dd_1_113)">
<path d="M209.401 77.6539L382.63 307.802H36.1712L209.401 77.6539Z" fill="#019444"/>
</g>
<rect x="179.704" y="438.961" width="59.393" height="94.0389" fill="#7E4D37"/>
<g filter="url(#filter2_d_1_113)">
<path d="M209.401 0.937897L345.51 181.592H73.2918L209.401 0.937897Z" fill="#47C653"/>
</g>
<path d="M283.642 221.952H404.903V261.547H283.642V221.952Z" fill="#019444"/>
<path fill-rule="evenodd" clip-rule="evenodd" d="M425.943 156.047C428.613 157.396 430.993 159.961 431.979 162.552C432.758 164.601 433.007 165.929 433.107 168.555C433.304 173.758 432.46 177.866 428.905 189.003C425.869 198.513 425.74 199.943 427.868 200.502C428.293 200.613 434.012 200.741 442.613 200.829C451.088 200.917 457.123 201.05 457.821 201.165C460.238 201.562 461.339 202.159 463.222 204.095C465.134 206.059 465.945 208.138 465.945 211.07C465.945 211.98 465.824 213.174 465.67 213.781C465.015 216.362 463.186 218.772 461.012 219.916C459.949 220.476 459.616 220.78 460.066 220.78C460.171 220.78 460.759 221.023 461.373 221.321C463.309 222.262 465.577 224.741 466.362 226.776C466.803 227.918 466.905 230.3 466.58 231.85C466 234.62 464.012 237.392 461.854 238.44C461.242 238.738 460.741 239.054 460.741 239.143C460.741 239.232 461.151 239.573 461.652 239.899C463.534 241.128 465.331 243.645 466.015 246.013C466.823 248.811 465.731 252.422 463.342 254.851C461.548 256.675 460.221 257.19 456.491 257.508C455.251 257.614 454.165 257.719 454.08 257.741C453.994 257.764 454.32 258.041 454.804 258.357C455.991 259.132 457.033 260.318 457.591 261.529C457.995 262.407 458.052 262.749 458.048 264.296C458.045 265.92 458 266.155 457.487 267.229C456.808 268.65 455.922 269.608 454.318 270.654L453.105 271.446L440.486 271.442C413.623 271.433 406.566 270.971 393.224 268.348C386.83 267.092 381.179 266.442 374.179 266.158C369.036 265.949 368.253 265.715 367.928 264.287C367.743 263.473 367.73 228.622 367.913 222.81C368.05 218.458 368.152 218.048 369.231 217.528C370.174 217.072 371.431 216.922 375.983 216.722C382.99 216.414 384.635 216.18 386.398 215.241C389.405 213.64 394.264 207.438 399.761 198.183C403.468 191.941 404.816 189.982 408.873 184.943C414.189 178.34 414.502 177.577 417.359 164.288C418.344 159.704 419.063 157.286 419.69 156.449C419.934 156.124 420.468 155.685 420.878 155.472C421.504 155.148 421.839 155.097 422.971 155.156C424.152 155.218 424.518 155.327 425.943 156.047Z" fill="#019444"/>
<defs>
<filter id="filter0_d_1_113" x="0" y="164.269" width="418.802" height="282.693" filterUnits="userSpaceOnUse" color-interpolation-filters="sRGB">
<feFlood flood-opacity="0" result="BackgroundImageFix"/>
<feColorMatrix in="SourceAlpha" type="matrix" values="0 0 0 0 0 0 0 0 0 0 0 0 0 0 0 0 0 0 127 0" result="hardAlpha"/>
<feOffset dy="4"/>
<feGaussianBlur stdDeviation="2"/>
<feComposite in2="hardAlpha" operator="out"/>
<feColorMatrix type="matrix" values="0 0 0 0 0 0 0 0 0 0 0 0 0 0 0 0 0 0 0.25 0"/>
<feBlend mode="normal" in2="BackgroundImageFix" result="effect1_dropShadow_1_113"/>
<feBlend mode="normal" in="SourceGraphic" in2="effect1_dropShadow_1_113" result="shape"/>
</filter>
<filter id="filter1_dd_1_113" x="32.1712" y="77.6539" width="354.459" height="238.148" filterUnits="userSpaceOnUse" color-interpolation-filters="sRGB">
<feFlood flood-opacity="0" result="BackgroundImageFix"/>
<feColorMatrix in="SourceAlpha" type="matrix" values="0 0 0 0 0 0 0 0 0 0 0 0 0 0 0 0 0 0 127 0" result="hardAlpha"/>
<feOffset dy="4"/>
<feGaussianBlur stdDeviation="2"/>
<feComposite in2="hardAlpha" operator="out"/>
<feColorMatrix type="matrix" values="0 0 0 0 0 0 0 0 0 0 0 0 0 0 0 0 0 0 0.25 0"/>
<feBlend mode="normal" in2="BackgroundImageFix" result="effect1_dropShadow_1_113"/>
<feColorMatrix in="SourceAlpha" type="matrix" values="0 0 0 0 0 0 0 0 0 0 0 0 0 0 0 0 0 0 127 0" result="hardAlpha"/>
<feOffset dy="4"/>
<feGaussianBlur stdDeviation="2"/>
<feComposite in2="hardAlpha" operator="out"/>
<feColorMatrix type="matrix" values="0 0 0 0 0 0 0 0 0 0 0 0 0 0 0 0 0 0 0.25 0"/>
<feBlend mode="normal" in2="effect1_dropShadow_1_113" result="effect2_dropShadow_1_113"/>
<feBlend mode="normal" in="SourceGraphic" in2="effect2_dropShadow_1_113" result="shape"/>
</filter>
<filter id="filter2_d_1_113" x="69.2918" y="0.937897" width="280.218" height="188.654" filterUnits="userSpaceOnUse" color-interpolation-filters="sRGB">
<feFlood flood-opacity="0" result="BackgroundImageFix"/>
<feColorMatrix in="SourceAlpha" type="matrix" values="0 0 0 0 0 0 0 0 0 0 0 0 0 0 0 0 0 0 127 0" result="hardAlpha"/>
<feOffset dy="4"/>
<feGaussianBlur stdDeviation="2"/>
<feComposite in2="hardAlpha" operator="out"/>
<feColorMatrix type="matrix" values="0 0 0 0 0 0 0 0 0 0 0 0 0 0 0 0 0 0 0.25 0"/>
<feBlend mode="normal" in2="BackgroundImageFix" result="effect1_dropShadow_1_113"/>
<feBlend mode="normal" in="SourceGraphic" in2="effect1_dropShadow_1_113" result="shape"/>
</filter>
</defs>
</svg>
